<mxfile host="app.diagrams.net" agent="Mozilla/5.0 (Windows NT 10.0; Win64; x64) AppleWebKit/537.36 (KHTML, like Gecko) Chrome/128.0.0.0 Safari/537.36 Edg/128.0.0.0" version="24.7.14">
  <diagram name="Page-1" id="265BTnEh-Vax4uky6mOw">
    <mxGraphModel dx="1331" dy="782" grid="0" gridSize="10" guides="1" tooltips="1" connect="1" arrows="1" fold="1" page="0" pageScale="1" pageWidth="850" pageHeight="1100" math="0" shadow="0">
      <root>
        <mxCell id="0" />
        <mxCell id="1" parent="0" />
        <mxCell id="1Pk7rgBqCUPLNwHQuxVK-4" style="edgeStyle=none;curved=1;rounded=0;orthogonalLoop=1;jettySize=auto;html=1;exitX=0.5;exitY=1;exitDx=0;exitDy=0;fontSize=12;startSize=8;endSize=8;" edge="1" parent="1" source="1Pk7rgBqCUPLNwHQuxVK-1" target="1Pk7rgBqCUPLNwHQuxVK-2">
          <mxGeometry relative="1" as="geometry" />
        </mxCell>
        <mxCell id="1Pk7rgBqCUPLNwHQuxVK-1" value="Player input (Space)" style="rounded=1;whiteSpace=wrap;html=1;" vertex="1" parent="1">
          <mxGeometry x="140" y="170" width="120" height="60" as="geometry" />
        </mxCell>
        <mxCell id="1Pk7rgBqCUPLNwHQuxVK-2" value="Move player up by set amount of pixels" style="rounded=1;whiteSpace=wrap;html=1;" vertex="1" parent="1">
          <mxGeometry x="140" y="259" width="120" height="60" as="geometry" />
        </mxCell>
        <mxCell id="1Pk7rgBqCUPLNwHQuxVK-3" value="" style="endArrow=classic;html=1;rounded=0;fontSize=12;startSize=8;endSize=8;curved=1;" edge="1" parent="1">
          <mxGeometry width="50" height="50" relative="1" as="geometry">
            <mxPoint x="175" y="225" as="sourcePoint" />
            <mxPoint x="225" y="175" as="targetPoint" />
          </mxGeometry>
        </mxCell>
        <mxCell id="1Pk7rgBqCUPLNwHQuxVK-5" value="" style="shape=waypoint;sketch=0;fillStyle=solid;size=6;pointerEvents=1;points=[];fillColor=none;resizable=0;rotatable=0;perimeter=centerPerimeter;snapToPoint=1;" vertex="1" parent="1">
          <mxGeometry x="-569" y="499" width="20" height="20" as="geometry" />
        </mxCell>
        <mxCell id="1Pk7rgBqCUPLNwHQuxVK-6" value="" style="shape=waypoint;sketch=0;fillStyle=solid;size=6;pointerEvents=1;points=[];fillColor=none;resizable=0;rotatable=0;perimeter=centerPerimeter;snapToPoint=1;" vertex="1" parent="1">
          <mxGeometry x="187" y="347" width="20" height="20" as="geometry" />
        </mxCell>
        <mxCell id="1Pk7rgBqCUPLNwHQuxVK-7" value="" style="endArrow=classic;html=1;rounded=0;fontSize=12;startSize=8;endSize=8;curved=1;" edge="1" parent="1">
          <mxGeometry width="50" height="50" relative="1" as="geometry">
            <mxPoint x="151" y="241" as="sourcePoint" />
            <mxPoint x="201" y="191" as="targetPoint" />
          </mxGeometry>
        </mxCell>
        <mxCell id="1Pk7rgBqCUPLNwHQuxVK-8" style="edgeStyle=none;curved=1;rounded=0;orthogonalLoop=1;jettySize=auto;html=1;exitX=0.5;exitY=1;exitDx=0;exitDy=0;entryX=0.5;entryY=0.3;entryDx=0;entryDy=0;entryPerimeter=0;fontSize=12;startSize=8;endSize=8;" edge="1" parent="1" source="1Pk7rgBqCUPLNwHQuxVK-2" target="1Pk7rgBqCUPLNwHQuxVK-6">
          <mxGeometry relative="1" as="geometry" />
        </mxCell>
      </root>
    </mxGraphModel>
  </diagram>
</mxfile>
